HIERARCHY
ROOT Hips
{
	OFFSET 0.000000 0.000000 0.000000
	CHANNELS 6 Xposition Yposition Zposition Xrotation Yrotation Zrotation
	JOINT LeftUpLeg_virtual
	{
		OFFSET 0.000000 0.000000 0.000000
		CHANNELS 3 Xrotation Yrotation Zrotation
		JOINT LeftUpLeg
		{
			OFFSET 15.427100 -6.655098 0.678600
			CHANNELS 3 Xrotation Yrotation Zrotation
			JOINT LeftLeg
			{
				OFFSET 4.081073 -39.591068 13.024000
				CHANNELS 3 Xrotation Yrotation Zrotation
				JOINT LeftFoot
				{
					OFFSET -4.081074 -37.707932 -15.979700
					CHANNELS 3 Xrotation Yrotation Zrotation
					JOINT LeftToeBase
					{
						OFFSET 5.346399 -15.068900 20.645000
						CHANNELS 3 Xrotation Yrotation Zrotation
						JOINT LeftToe_End
						{
							OFFSET 2.754700 0.931300 11.300900
							CHANNELS 3 Xrotation Yrotation Zrotation
							End Site
							{
								OFFSET 0 0 0
							}
						}
					}
				}
			}
		}
	}
	JOINT RightUpLeg_virtual
	{
		OFFSET 0.000000 0.000000 0.000000
		CHANNELS 3 Xrotation Yrotation Zrotation
		JOINT RightUpLeg
		{
			OFFSET -15.569500 -6.655098 0.678600
			CHANNELS 3 Xrotation Yrotation Zrotation
			JOINT RightLeg
			{
				OFFSET -4.081825 -39.591045 13.023800
				CHANNELS 3 Xrotation Yrotation Zrotation
				JOINT RightFoot
				{
					OFFSET 4.081824 -37.707954 -15.979600
					CHANNELS 3 Xrotation Yrotation Zrotation
					JOINT RightToeBase
					{
						OFFSET -5.346400 -15.068900 20.645000
						CHANNELS 3 Xrotation Yrotation Zrotation
						JOINT RightToe_End
						{
							OFFSET -2.754700 0.931300 11.300900
							CHANNELS 3 Xrotation Yrotation Zrotation
							End Site
							{
								OFFSET 0 0 0
							}
						}
					}
				}
			}
		}
	}
	JOINT Spine_virtual
	{
		OFFSET 0.000000 0.000000 0.000000
		CHANNELS 3 Xrotation Yrotation Zrotation
		JOINT Spine
		{
			OFFSET -0.279200 12.230698 -2.892100
			CHANNELS 3 Xrotation Yrotation Zrotation
			JOINT Spine1
			{
				OFFSET -0.232667 10.192268 -1.242267
				CHANNELS 3 Xrotation Yrotation Zrotation
				JOINT Spine1_split
				{
					OFFSET -0.232667 10.192268 -1.242267
					CHANNELS 3 Xrotation Yrotation Zrotation
					JOINT Spine2
					{
						OFFSET -0.232667 10.192268 -1.242267
						CHANNELS 3 Xrotation Yrotation Zrotation
						JOINT Neck_virtual
						{
							OFFSET 0.000000 0.000000 0.000000
							CHANNELS 3 Xrotation Yrotation Zrotation
							JOINT Neck
							{
								OFFSET -0.418800 17.814194 8.416900
								CHANNELS 3 Xrotation Yrotation Zrotation
								JOINT Head
								{
									OFFSET 0.000000 7.031097 3.806800
									CHANNELS 3 Xrotation Yrotation Zrotation
									JOINT HeadTop_End
									{
										OFFSET 0.000000 24.646606 12.978600
										CHANNELS 3 Xrotation Yrotation Zrotation
										End Site
										{
											OFFSET 0 0 0
										}
									}
								}
							}
						}
						JOINT LeftShoulder_virtual
						{
							OFFSET 0.000000 0.000000 0.000000
							CHANNELS 3 Xrotation Yrotation Zrotation
							JOINT LeftShoulder
							{
								OFFSET 8.476499 7.247704 -3.868750
								CHANNELS 3 Xrotation Yrotation Zrotation
								JOINT LeftShoulder_split
								{
									OFFSET 8.476499 7.247704 -3.868750
									CHANNELS 3 Xrotation Yrotation Zrotation
									JOINT LeftArm
									{
										OFFSET 9.308998 -2.777710 0.208600
										CHANNELS 3 Xrotation Yrotation Zrotation
										JOINT LeftForeArm
										{
											OFFSET 29.972298 0.000000 0.000000
											CHANNELS 3 Xrotation Yrotation Zrotation
											JOINT LeftHand
											{
												OFFSET 26.026505 0.000000 0.000000
												CHANNELS 3 Xrotation Yrotation Zrotation
												End Site
												{
													OFFSET 0 0 0
												}
											}
										}
									}
								}
							}
						}
						JOINT RightShoulder_virtual
						{
							OFFSET 0.000000 0.000000 0.000000
							CHANNELS 3 Xrotation Yrotation Zrotation
							JOINT RightShoulder
							{
								OFFSET -7.570500 7.247704 -3.868750
								CHANNELS 3 Xrotation Yrotation Zrotation
								JOINT RightShoulder_split
								{
									OFFSET -7.570500 7.247704 -3.868750
									CHANNELS 3 Xrotation Yrotation Zrotation
									JOINT RightArm
									{
										OFFSET -9.308998 -2.777710 0.208500
										CHANNELS 3 Xrotation Yrotation Zrotation
										JOINT RightForeArm
										{
											OFFSET -29.972300 0.000000 0.000000
											CHANNELS 3 Xrotation Yrotation Zrotation
											JOINT RightHand
											{
												OFFSET -26.026505 0.000000 0.000000
												CHANNELS 3 Xrotation Yrotation Zrotation
												End Site
												{
													OFFSET 0 0 0
												}
											}
										}
									}
								}
							}
						}
					}
				}
			}
		}
	}
}
MOTION
Frames: 4
Frame Time: 0.03333333
-4.754857 71.908203 -127.424133 0.000000 0.000000 0.000000 155.996958 -80.957713 154.518769 -45.949135 -15.184564 38.103617 22.295559 -13.518759 -2.201897 31.289220 2.349274 -8.163027 -1.995287 0.157367 -4.288503 0.000000 0.000000 0.000000 155.996958 -80.957713 154.518769 -45.222491 2.991046 -28.986667 56.982110 6.715752 1.984050 -9.263039 -3.036148 10.732549 -6.361751 0.000008 0.000002 0.000000 0.000000 0.000000 155.996958 -80.957713 154.518769 4.992467 11.074558 -2.596109 5.648441 6.889308 -0.879005 0.000000 0.000000 0.000000 0.000000 0.000000 0.000000 4.702464 17.214682 0.847255 7.086028 5.084710 -5.374684 -9.934685 17.069763 4.183230 0.000000 0.000000 0.000000 4.702464 17.214682 0.847255 4.482669 5.962511 -14.443009 0.000000 0.000000 0.000000 -53.614827 -34.544617 -49.032726 0.000197 -80.971018 0.000183 0.000000 0.000000 0.000000 4.702464 17.214682 0.847255 -14.733256 5.625436 -4.243749 0.000000 0.000000 0.000000 -103.836982 41.709342 125.051502 0.000010 29.459149 -0.000015 0.000000 0.000000 0.000000 
-2.122634 72.515999 -134.960541 0.000000 0.000000 0.000000 152.906229 -81.867153 148.511276 -52.977990 -18.103917 34.945761 35.131266 -10.841279 -1.769411 23.251987 1.239562 -10.192912 -0.000010 0.000003 0.000008 0.000000 0.000000 0.000000 152.906229 -81.867153 148.511276 -47.591081 -0.133831 -21.088383 59.684549 5.596339 2.161566 -6.504372 -3.072477 11.764273 -10.399935 0.000011 0.000002 0.000000 0.000000 0.000000 152.906229 -81.867153 148.511276 5.120595 10.451952 -0.701040 6.079594 5.798288 -0.521031 0.000000 0.000000 0.000000 0.000000 0.000000 0.000000 5.085126 16.136090 1.189172 6.289636 5.421251 -4.908953 -11.393623 17.889737 5.359085 0.000000 0.000000 0.000000 5.085126 16.136090 1.189172 3.544246 4.756017 -11.623018 0.000000 0.000000 0.000000 -54.038852 -33.116445 -50.381576 -0.000340 -81.882384 -0.000323 0.000000 0.000000 0.000000 5.085126 16.136090 1.189172 -14.733702 2.115979 -4.463089 0.000000 0.000000 0.000000 -107.662455 41.165967 127.346487 -0.000002 29.080678 -0.000007 0.000000 0.000000 0.000000 
-2.122634 72.515999 -134.960541 0.000000 0.000000 0.000000 152.906229 -81.867153 148.511276 -52.977990 -18.103917 34.945761 35.131266 -10.841279 -1.769411 23.251987 1.239562 -10.192912 -0.000010 0.000003 0.000008 0.000000 0.000000 0.000000 152.906229 -81.867153 148.511276 -47.591081 -0.133831 -21.088383 59.684549 5.596339 2.161566 -6.504372 -3.072477 11.764273 -10.399935 0.000011 0.000002 0.000000 0.000000 0.000000 152.906229 -81.867153 148.511276 5.120595 10.451952 -0.701040 6.079594 5.798288 -0.521031 0.000000 0.000000 0.000000 0.000000 0.000000 0.000000 5.085126 16.136090 1.189172 6.289636 5.421251 -4.908953 -11.393623 17.889737 5.359085 0.000000 0.000000 0.000000 5.085126 16.136090 1.189172 3.544246 4.756017 -11.623018 0.000000 0.000000 0.000000 -54.038852 -33.116445 -50.381576 -0.000340 -81.882384 -0.000323 0.000000 0.000000 0.000000 5.085126 16.136090 1.189172 -14.733702 2.115979 -4.463089 0.000000 0.000000 0.000000 -107.662455 41.165967 127.346487 -0.000002 29.080678 -0.000007 0.000000 0.000000 0.000000 
-2.122634 72.515999 -134.960541 0.000000 0.000000 0.000000 152.906229 -81.867153 148.511276 -52.977990 -18.103917 34.945761 35.131266 -10.841279 -1.769411 23.251987 1.239562 -10.192912 -0.000010 0.000003 0.000008 0.000000 0.000000 0.000000 152.906229 -81.867153 148.511276 -47.591081 -0.133831 -21.088383 59.684549 5.596339 2.161566 -6.504372 -3.072477 11.764273 -10.399935 0.000011 0.000002 0.000000 0.000000 0.000000 152.906229 -81.867153 148.511276 5.120595 10.451952 -0.701040 6.079594 5.798288 -0.521031 0.000000 0.000000 0.000000 0.000000 0.000000 0.000000 5.085126 16.136090 1.189172 6.289636 5.421251 -4.908953 -11.393623 17.889737 5.359085 0.000000 0.000000 0.000000 5.085126 16.136090 1.189172 3.544246 4.756017 -11.623018 0.000000 0.000000 0.000000 -54.038852 -33.116445 -50.381576 -0.000340 -81.882384 -0.000323 0.000000 0.000000 0.000000 5.085126 16.136090 1.189172 -14.733702 2.115979 -4.463089 0.000000 0.000000 0.000000 -107.662455 41.165967 127.346487 -0.000002 29.080678 -0.000007 0.000000 0.000000 0.000000 
